<?xml version="1.0" encoding="UTF-8"?>
<svg width="128px" height="128px" viewBox="0 0 128 128" version="1.1" xmlns="http://www.w3.org/2000/svg" xmlns:xlink="http://www.w3.org/1999/xlink">
    <title>adult@3x</title>
    <g id="Page-1" stroke="none" stroke-width="1" fill="none" fill-rule="evenodd">
        <g id="adult" fill="#e31e24" fill-rule="nonzero">
            <polygon id="Path" points="40.4037377 86 40.4037377 50.9754288 32 50.9754288 32 42 52 42 52 86"></polygon>
            <path d="M93.679493,54.0780014 C93.679493,57.9969274 91.6098517,61.4661406 88.1604495,63.3938828 C92.9892206,65.4493113 96,69.7541069 96,74.7651926 C96,82.8600234 88.9753707,88 78,88 C67.0242373,88 60,82.9242681 60,74.9583282 C60,69.8183516 63.261253,65.4493113 68.3412818,63.3938828 C64.6410139,61.2734065 62.2577906,57.6761055 62.2577906,53.7571795 C62.2577906,46.5609714 68.4043901,42 77.9372836,42 C87.5956099,42 93.679493,46.6898623 93.679493,54.0780014 Z M70.5363559,73.8019238 C70.5363559,77.592762 73.1708369,79.7128367 78,79.7128367 C82.8291631,79.7128367 85.5259685,77.6574082 85.5259685,73.8019238 C85.5259685,70.0761334 82.8291631,67.9552557 78,67.9552557 C73.1704449,67.9552557 70.5363559,70.0757319 70.5363559,73.8019238 Z M71.6656432,54.7204483 C71.6656432,57.9334858 73.9234337,59.731534 78,59.731534 C82.0765663,59.731534 84.3343568,57.9330843 84.3343568,54.7204483 C84.3343568,51.3805276 82.0765663,49.5170301 78,49.5170301 C73.9230417,49.5170301 71.6656432,51.3805276 71.6656432,54.7204483 Z" id="Shape"></path>
            <path d="M113.988779,47.068989 C115.831747,52.5083195 116.766658,58.1975285 116.766658,64 C116.766658,93.094872 93.0957213,116.765593 64.0001946,116.765593 C34.9046679,116.765593 11.2333417,93.094872 11.2333417,64 C11.2333417,34.9043495 34.9042787,11.2344069 63.9998054,11.2344069 C69.8031083,11.2344069 75.4923691,12.1685317 80.9309708,14.0122604 L80.9309708,2.26992313 C75.4374888,0.764036197 69.7637969,0 64.0001946,0 C28.7105859,0 0,28.710324 0,64 C0,99.289676 28.7105859,128 64.0001946,128 C99.2898033,128 128,99.289676 128,64 C128,58.2368395 127.236346,52.5628102 125.730445,47.068989 L113.988779,47.068989 Z" id="Path"></path>
            <polygon id="Path" points="109.468663 16.5046485 109.468663 4 100.457008 4 100.457008 16.5046485 88 16.5046485 88 25.4957481 100.457008 25.4957481 100.457008 38 109.468663 38 109.468663 25.4957481 122 25.4957481 122 16.5046485"></polygon>
        </g>
    </g>
</svg>