<?xml version="1.0" encoding="UTF-8"?>
<svg width="32px" height="32px" viewBox="0 0 32 32" version="1.1" xmlns="http://www.w3.org/2000/svg" xmlns:xlink="http://www.w3.org/1999/xlink">
    <title>Group 4</title>
    <g id="Page-1" stroke="none" stroke-width="1" fill="none" fill-rule="evenodd">
        <g id="VS-5" transform="translate(-356.000000, -50.000000)" fill="#363434">
            <g id="Group-4" transform="translate(356.000000, 50.000000)">
                <path d="M12,22 L16,22 L16,10 L12,10 L12,22 Z M18,22 L19,22 L19,10 L18,10 L18,22 Z M20,22 L24,22 L24,10 L20,10 L20,22 Z M8,22 L10,22 L10,10 L8,10 L8,22 Z M23,6 C22.448,6 22,6.448 22,7 C22,7.552 22.448,8 23,8 L26,8 L26,11 C26,11.552 26.448,12 27,12 C27.552,12 28,11.552 28,11 L28,6 L23,6 Z M27,20 C26.448,20 26,20.448 26,21 L26,24 L23,24 C22.448,24 22,24.448 22,25 C22,25.552 22.448,26 23,26 L28,26 L28,21 C28,20.448 27.552,20 27,20 L27,20 Z M9,24 L6,24 L6,21 C6,20.448 5.552,20 5,20 C4.448,20 4,20.448 4,21 L4,26 L9,26 C9.552,26 10,25.552 10,25 C10,24.448 9.552,24 9,24 L9,24 Z M9,6 L4,6 L4,11 C4,11.552 4.448,12 5,12 C5.552,12 6,11.552 6,11 L6,8 L9,8 C9.552,8 10,7.552 10,7 C10,6.448 9.552,6 9,6 L9,6 Z" id="Fill-2"></path>
            </g>
        </g>
    </g>
</svg>