<svg width="32" height="32" viewBox="0 0 32 32" fill="none" xmlns="http://www.w3.org/2000/svg">
<path opacity="0.01" fill-rule="evenodd" clip-rule="evenodd" d="M0 32H32V0H0V32Z" fill="#FEFEFE"/>
<path fill-rule="evenodd" clip-rule="evenodd" d="M25.8946 15.7808L22.6036 23.3968C22.4456 23.7628 22.0846 23.9998 21.6856 23.9998H10.3146C9.91556 23.9998 9.55456 23.7628 9.39656 23.3968L6.06556 15.6978C5.95356 15.4928 6.02256 15.3178 6.07356 15.2308C6.12456 15.1448 6.24656 14.9998 6.47956 14.9998H7.99956H23.9996H25.5196C25.7536 14.9998 25.8746 15.1448 25.9266 15.2308C25.9776 15.3178 26.0466 15.4928 25.8946 15.7808ZM9.99956 10.9998C9.99956 9.34576 11.3456 7.99976 12.9996 7.99976H18.9996C20.6546 7.99976 21.9996 9.34576 21.9996 10.9998V12.9998H9.99956V10.9998ZM27.6456 14.2108C27.1966 13.4528 26.4016 12.9998 25.5196 12.9998H23.9996V10.9998C23.9996 8.24276 21.7566 5.99976 18.9996 5.99976H12.9996C10.2436 5.99976 7.99956 8.24276 7.99956 10.9998V12.9998H6.47956C5.59856 12.9998 4.80356 13.4528 4.35356 14.2108C3.90456 14.9688 3.88756 15.8828 4.26956 16.5738L7.56056 24.1898C8.03556 25.2898 9.11656 25.9998 10.3146 25.9998H21.6856C22.8836 25.9998 23.9646 25.2898 24.4396 24.1898L27.6906 16.6558C28.1126 15.8828 28.0956 14.9688 27.6456 14.2108Z" fill="#000000"/>
</svg>
