<svg width="32" height="32" viewBox="0 0 32 32" fill="none" xmlns="http://www.w3.org/2000/svg">
<path opacity="0.01" fill-rule="evenodd" clip-rule="evenodd" d="M0 32H32V0H0V32Z" fill="#FEFEFE"/>
<path fill-rule="evenodd" clip-rule="evenodd" d="M25 15H7C6.448 15 6 15.448 6 16C6 16.552 6.448 17 7 17H25C25.552 17 26 16.552 26 16C26 15.448 25.552 15 25 15ZM25 21H7C6.448 21 6 21.448 6 22C6 22.552 6.448 23 7 23H25C25.552 23 26 22.552 26 22C26 21.448 25.552 21 25 21ZM7 11H25C25.552 11 26 10.552 26 10C26 9.448 25.552 9 25 9H7C6.448 9 6 9.448 6 10C6 10.552 6.448 11 7 11Z" fill="#000000"/>
</svg>
