<?xml version="1.0" encoding="UTF-8"?>
<svg width="25px" height="21px" viewBox="0 0 25 21" version="1.1" xmlns="http://www.w3.org/2000/svg" xmlns:xlink="http://www.w3.org/1999/xlink">
    <title>Shape</title>
    <g id="Page-1" stroke="none" stroke-width="1" fill="none" fill-rule="evenodd">
        <g id="iPhone-11-/-11-Pro-Max-17" transform="translate(-239.000000, -235.000000)" fill="#e31e24" fill-rule="nonzero">
            <g id="dostavka-copy" transform="translate(235.000000, 229.000000)">
                <path d="M28.6875,16.5 L26.1875,12.3 C25.7708333,11.67 25.1458333,11.25 24.4166667,11.25 L18.5833333,11.25 L18.5833333,8.1 C18.5833333,6.945 17.6458333,6 16.5,6 L6.08333333,6 C4.9375,6 4,6.945 4,8.1 L4,20.7 C4,21.855 4.9375,22.8 6.08333333,22.8 L7.125,22.8 C7.125,25.11 9,27 11.2916667,27 C13.5833333,27 15.4583333,25.11 15.4583333,22.8 L17.5416667,22.8 C17.5416667,25.11 19.4166667,27 21.7083333,27 C24,27 25.875,25.11 25.875,22.8 L26.9166667,22.8 C28.0625,22.8 29,21.855 29,20.7 L29,17.655 C29,17.235 28.8958333,16.815 28.6875,16.5 Z M11.2916667,24.9 C10.1458333,24.9 9.20833333,23.955 9.20833333,22.8 C9.20833333,21.645 10.1458333,20.7 11.2916667,20.7 C12.4375,20.7 13.375,21.645 13.375,22.8 C13.375,23.955 12.4375,24.9 11.2916667,24.9 Z M21.7083333,24.9 C20.5625,24.9 19.625,23.955 19.625,22.8 C19.625,21.645 20.5625,20.7 21.7083333,20.7 C22.8541667,20.7 23.7916667,21.645 23.7916667,22.8 C23.7916667,23.955 22.8541667,24.9 21.7083333,24.9 Z M25.25,17.55 L22.75,17.55 C22.125,17.55 21.7083333,17.13 21.7083333,16.5 L21.7083333,14.4 C21.7083333,13.77 22.125,13.35 22.75,13.35 L24.2083333,13.35 C24.625,13.35 24.9375,13.56 25.1458333,13.98 L26.1875,16.08 C26.5,16.71 25.9791667,17.55 25.25,17.55 Z" id="Shape"></path>
            </g>
        </g>
    </g>
</svg>