<?xml version="1.0" encoding="UTF-8"?>
<svg width="32px" height="32px" viewBox="0 0 32 32" version="1.1" xmlns="http://www.w3.org/2000/svg" xmlns:xlink="http://www.w3.org/1999/xlink">
    <title>Group 7 Copy 3</title>
    <g id="Page-1" stroke="none" stroke-width="1" fill="none" fill-rule="evenodd">
        <g id="VS-14" transform="translate(-18.000000, -791.000000)" fill="#9D9B9B">
            <g id="Group-7-Copy-3" transform="translate(18.000000, 791.000000)">
                <g id="Group-6" transform="translate(6.000000, 5.000000)">
                    <path d="M11.3335,20 L2.0005,20 L2.0005,2 L11.3335,2 C11.8855,2 12.3335,1.552 12.3335,1 C12.3335,0.448 11.8855,0 11.3335,0 L1.0005,0 C0.4475,0 0.0005,0.448 0.0005,1 L0.0005,21 C0.0005,21.552 0.4475,22 1.0005,22 L11.3335,22 C11.8855,22 12.3335,21.552 12.3335,21 C12.3335,20.448 11.8855,20 11.3335,20" id="Fill-2"></path>
                    <path d="M19.8467,10.2192 L16.5137,7.5522 C16.0837,7.2082 15.4527,7.2772 15.1087,7.7092 C14.7637,8.1402 14.8327,8.7692 15.2647,9.1142 L16.3717,10.0002 L10.6667,10.0002 C10.1147,10.0002 9.6667,10.4482 9.6667,11.0002 C9.6667,11.5522 10.1147,12.0002 10.6667,12.0002 L16.3717,12.0002 L15.2647,12.8862 C14.8327,13.2302 14.7637,13.8602 15.1087,14.2912 C15.3057,14.5382 15.5967,14.6662 15.8897,14.6662 C16.1087,14.6662 16.3297,14.5942 16.5137,14.4472 L19.8467,11.7812 C20.0837,11.5912 20.2217,11.3032 20.2217,11.0002 C20.2217,10.6962 20.0837,10.4082 19.8467,10.2192" id="Fill-4"></path>
                </g>
            </g>
        </g>
    </g>
</svg>