<svg width="32" height="32" viewBox="0 0 32 32" fill="none" xmlns="http://www.w3.org/2000/svg">
<path opacity="0.01" fill-rule="evenodd" clip-rule="evenodd" d="M0 32H32V0H0V32Z" fill="white"/>
<path fill-rule="evenodd" clip-rule="evenodd" d="M25 19H20V17C20 16.448 19.552 16 19 16C18.448 16 18 16.448 18 17V19H7C6.448 19 6 19.448 6 20C6 20.552 6.448 21 7 21H18V23C18 23.552 18.448 24 19 24C19.552 24 20 23.552 20 23V21H25C25.552 21 26 20.552 26 20C26 19.448 25.552 19 25 19ZM7 13H11V15C11 15.552 11.448 16 12 16C12.552 16 13 15.552 13 15V13H25C25.552 13 26 12.552 26 12C26 11.448 25.552 11 25 11H13V9C13 8.448 12.552 8 12 8C11.448 8 11 8.448 11 9V11H7C6.448 11 6 11.448 6 12C6 12.552 6.448 13 7 13Z" fill="#363434"/>
</svg>
