<?xml version="1.0" encoding="UTF-8"?>
<svg width="32px" height="32px" viewBox="0 0 32 32" version="1.1" xmlns="http://www.w3.org/2000/svg" xmlns:xlink="http://www.w3.org/1999/xlink">
    <title>Group 4</title>
    <g id="Page-1" stroke="none" stroke-width="1" fill="none" fill-rule="evenodd">
        <g id="VS-7" transform="translate(-18.000000, -543.000000)" fill="currentColor">
            <g id="Group-4" transform="translate(18.000000, 543.000000)">
                <path d="M17,25.0869565 L24,25.0869565 L24,17.4347826 L17,17.4347826 L17,25.0869565 Z M8,25.0869565 L15,25.0869565 L15,17.4347826 L8,17.4347826 L8,25.0869565 Z M7,15.5217391 L15,15.5217391 L15,12.6521739 L7,12.6521739 L7,15.5217391 Z M11.333,6.91304348 C13.205,6.91304348 14.182,8.38034783 14.647,9.46408696 L11.333,9.46408696 C10.598,9.46408696 10,8.89113043 10,8.18808696 C10,7.48504348 10.598,6.91304348 11.333,6.91304348 L11.333,6.91304348 Z M20.667,6.91304348 C21.402,6.91304348 22,7.48504348 22,8.18808696 C22,8.89113043 21.402,9.46408696 20.667,9.46408696 L17.358,9.46408696 C17.828,8.38130435 18.81,6.91304348 20.667,6.91304348 L20.667,6.91304348 Z M17,15.5217391 L25,15.5217391 L25,12.6521739 L17,12.6521739 L17,15.5217391 Z M26,10.7391304 L22.646,10.7391304 C23.463,10.1575652 24,9.23547826 24,8.18808696 C24,6.43095652 22.505,5 20.667,5 C18.384,5 16.888,6.33721739 16,7.78347826 C15.112,6.33721739 13.616,5 11.333,5 C9.495,5 8,6.43095652 8,8.18808696 C8,9.23547826 8.537,10.1575652 9.354,10.7391304 L6,10.7391304 C5.447,10.7391304 5,11.1676522 5,11.6956522 L5,16.4782609 C5,17.0062609 5.447,17.4347826 6,17.4347826 L6,26.0434783 C6,26.5724348 6.447,27 7,27 L25,27 C25.553,27 26,26.5724348 26,26.0434783 L26,17.4347826 C26.553,17.4347826 27,17.0062609 27,16.4782609 L27,11.6956522 C27,11.1676522 26.553,10.7391304 26,10.7391304 L26,10.7391304 Z" id="Fill-2" fill="#000000"></path>
            </g>
        </g>
    </g>
</svg>