<?xml version="1.0" encoding="UTF-8"?>
<svg width="32px" height="32px" viewBox="0 0 32 32" version="1.1" xmlns="http://www.w3.org/2000/svg" xmlns:xlink="http://www.w3.org/1999/xlink">
    <title>Group 20 Copy 3</title>
    <g id="Page-1" stroke="none" stroke-width="1" fill="none" fill-rule="evenodd">
        <g id="VS-3" transform="translate(-191.000000, -50.000000)">
            <g id="Group-20-Copy-3" transform="translate(191.000000, 50.000000)">
                <polygon id="Fill-1" fill="#FFFFFF" opacity="0" points="0 32 32 32 32 0 0 0"></polygon>
                <path d="M15.628,25.929 C15.195,25.755 5,21.579 5,13 C5,9.691 7.691,7 11,7 C13.085,7 14.924,8.068 16,9.687 C17.076,8.068 18.915,7 21,7 C24.309,7 27,9.691 27,13 C27,20.531 16.878,25.679 16.447,25.895 C16.307,25.965 16.153,26 16,26 C15.874,26 15.748,25.976 15.628,25.929 Z" id="Path" fill="#F2F2F2"></path>
                <path d="M11,9 C8.794,9 7,10.794 7,13 C7,19.352 14.143,23.052 15.957,23.889 C17.765,22.889 25,18.537 25,13 C25,10.794 23.206,9 21,9 C18.794,9 17,10.794 17,13 C17,13.552 16.552,14 16,14 C15.448,14 15,13.552 15,13 C15,10.794 13.206,9 11,9" id="Path" fill="#000000"></path>
            </g>
        </g>
    </g>
</svg>