<?xml version="1.0" encoding="UTF-8"?>
<svg width="32px" height="32px" viewBox="0 0 32 32" version="1.1" xmlns="http://www.w3.org/2000/svg" xmlns:xlink="http://www.w3.org/1999/xlink">
    <title>home</title>
    <g id="Page-1" stroke="none" stroke-width="1" fill-rule="evenodd">
        <g id="iPhone-11-/-11-Pro-Max-05" transform="translate(-40.000000, -817.000000)" fill-rule="nonzero">
            <g id="home" transform="translate(40.000000, 817.000000)">
                <rect id="Rectangle-Copy-9_2_" opacity="0" x="0" y="0" width="32" height="32"></rect>
                <path d="M27.4,14.1 L17.2,6.4 C16.5,5.9 15.5,5.9 14.8,6.4 L4.6,14.1 C3.5,15 4,17 5.4,17 L7,17 L7,24 C7,25.1 7.9,26 9,26 L12,26 C13.1,26 14,25.1 14,24 L14,20.1 C14,19.1 14.7,18.2 15.7,18 C17,17.8 18,18.8 18,20 L18,24 C18,25.1 18.9,26 20,26 L23,26 C24.1,26 25,25.1 25,24 L25,17 L26.6,17 C28,17 28.5,15 27.4,14.1 Z" id="Path"></path>
            </g>
        </g>
    </g>
</svg>