<?xml version="1.0" encoding="UTF-8"?>
<svg width="32px" height="32px" viewBox="0 0 32 32" version="1.1" xmlns="http://www.w3.org/2000/svg" xmlns:xlink="http://www.w3.org/1999/xlink">
    <title>Group 4</title>
    <g id="Page-1" stroke="none" stroke-width="1" fill="none" fill-rule="evenodd">
        <g id="VS-7" transform="translate(-19.000000, -625.000000)" fill="#000000">
            <g id="Group-4" transform="translate(19.000000, 625.000000)">
                <path d="M14.8755,15.6689 C14.8915,15.4659 14.9655,15.2999 15.0975,15.1699 C15.2295,15.0399 15.3925,14.9749 15.5865,14.9749 C15.7875,14.9749 15.9525,15.0379 16.0815,15.1629 C16.2095,15.2909 16.2795,15.4599 16.2905,15.6689 L14.8755,15.6689 Z M15.5695,14.1139 C14.9905,14.1139 14.5315,14.2939 14.1915,14.6539 C13.8525,15.0159 13.6825,15.5039 13.6825,16.1169 C13.6825,16.7299 13.8535,17.2099 14.1955,17.5599 C14.5375,17.9069 15.0085,18.0819 15.6105,18.0819 C16.1025,18.0819 16.5115,17.9659 16.8375,17.7339 C17.1605,17.5029 17.3515,17.1929 17.4125,16.8039 L16.3175,16.8039 C16.2195,17.0819 15.9895,17.2209 15.6275,17.2209 C15.3995,17.2209 15.2145,17.1479 15.0735,17.0019 C14.9325,16.8589 14.8615,16.6709 14.8615,16.4379 L14.8615,16.3629 L17.4355,16.3629 L17.4355,16.0179 C17.4355,15.4389 17.2675,14.9759 16.9295,14.6299 C16.5895,14.2859 16.1365,14.1139 15.5695,14.1139 L15.5695,14.1139 Z M21.7555,16.8999 L21.7315,16.8999 L21.1295,14.1959 L19.9755,14.1959 L19.3795,16.8999 L19.3565,16.8999 L18.8605,14.1959 L17.6405,14.1959 L18.6275,17.9999 L19.9135,17.9999 L20.5225,15.4189 L20.5455,15.4189 L21.1575,17.9999 L22.4635,17.9999 L23.4485,14.1959 L22.2505,14.1959 L21.7555,16.8999 Z M11.7135,14.1309 C11.1145,14.1309 10.7105,14.3909 10.5005,14.9099 L10.4765,14.9099 L10.4765,14.1959 L9.3005,14.1959 L9.3005,17.9999 L10.5105,17.9999 L10.5105,15.8539 C10.5105,15.6369 10.5745,15.4609 10.7025,15.3239 C10.8295,15.1869 10.9965,15.1189 11.2015,15.1189 C11.4085,15.1189 11.5705,15.1809 11.6865,15.3069 C11.8005,15.4299 11.8575,15.6019 11.8575,15.8229 L11.8575,17.9999 L13.0705,17.9999 L13.0705,15.5629 C13.0705,15.1139 12.9515,14.7629 12.7115,14.5099 C12.4705,14.2569 12.1375,14.1309 11.7135,14.1309 L11.7135,14.1309 Z M25.8315,17.5529 C25.2375,18.1189 24.6245,18.7039 24.3175,19.4439 C23.9995,20.2129 24.0145,21.0829 24.0295,21.9249 C24.0425,22.6629 24.0565,23.4999 23.7785,23.7779 C23.5005,24.0579 22.6645,24.0429 21.9235,24.0289 C21.0865,24.0159 20.2135,23.9989 19.4445,24.3169 C18.7045,24.6239 18.1195,25.2369 17.5525,25.8309 C17.0295,26.3789 16.4365,26.9999 16.0005,26.9999 C15.5635,26.9999 14.9705,26.3789 14.4475,25.8309 C13.8805,25.2369 13.2955,24.6239 12.5555,24.3169 C11.9495,24.0669 11.2805,24.0229 10.6125,24.0229 C10.4325,24.0229 10.2535,24.0259 10.0755,24.0289 C9.3355,24.0409 8.5005,24.0569 8.2215,23.7779 C7.9435,23.4999 7.9585,22.6619 7.9705,21.9239 C7.9855,21.0829 8.0005,20.2129 7.6825,19.4439 C7.3755,18.7039 6.7625,18.1189 6.1685,17.5529 C5.6215,17.0289 5.0005,16.4369 5.0005,15.9999 C5.0005,15.5639 5.6215,14.9709 6.1685,14.4469 C6.7625,13.8809 7.3755,13.2959 7.6825,12.5559 C8.0005,11.7869 7.9855,10.9169 7.9705,10.0749 C7.9585,9.3369 7.9435,8.4999 8.2215,8.2219 C8.5005,7.9419 9.3355,7.9569 10.0765,7.9709 C10.9155,7.9859 11.7875,8.0019 12.5555,7.6829 C13.2955,7.3759 13.8805,6.7629 14.4475,6.1689 C14.9705,5.6209 15.5635,4.9999 16.0005,4.9999 C16.4365,4.9999 17.0295,5.6209 17.5525,6.1689 C18.1195,6.7629 18.7045,7.3759 19.4445,7.6829 C20.2135,8.0019 21.0825,7.9859 21.9245,7.9709 C22.6615,7.9559 23.4995,7.9419 23.7785,8.2219 C24.0565,8.4999 24.0425,9.3379 24.0295,10.0759 C24.0145,10.9169 23.9995,11.7869 24.3175,12.5559 C24.6245,13.2959 25.2375,13.8809 25.8315,14.4469 C26.3785,14.9709 27.0005,15.5639 27.0005,15.9999 C27.0005,16.4369 26.3785,17.0289 25.8315,17.5529 L25.8315,17.5529 Z M27.2115,12.9999 C26.7685,12.5769 26.3105,12.1399 26.1655,11.7899 C26.0055,11.4059 26.0175,10.7479 26.0285,10.1109 C26.0485,8.9749 26.0715,7.6879 25.1925,6.8079 C24.3125,5.9279 23.0205,5.9439 21.8895,5.9719 C21.2555,5.9839 20.5945,5.9939 20.2095,5.8349 C19.8605,5.6899 19.4225,5.2319 19.0005,4.7879 C18.1995,3.9499 17.2925,2.9999 16.0005,2.9999 C14.7075,2.9999 13.8005,3.9499 13.0005,4.7879 C12.5775,5.2319 12.1395,5.6899 11.7905,5.8349 C11.4055,5.9939 10.7475,5.9839 10.1115,5.9719 C8.9745,5.9449 7.6865,5.9289 6.8075,6.8079 C5.9285,7.6869 5.9515,8.9749 5.9715,10.1099 C5.9825,10.7469 5.9945,11.4059 5.8345,11.7899 C5.6895,12.1399 5.2315,12.5769 4.7885,12.9999 C3.9505,13.8009 3.0005,14.7069 3.0005,15.9999 C3.0005,17.2929 3.9505,18.1989 4.7885,18.9999 C5.2315,19.4229 5.6895,19.8599 5.8345,20.2099 C5.9945,20.5939 5.9825,21.2519 5.9715,21.8889 C5.9515,23.0259 5.9285,24.3129 6.8075,25.1919 C7.6865,26.0709 8.9775,26.0509 10.1105,26.0279 C10.7475,26.0179 11.4055,26.0059 11.7905,26.1649 C12.1395,26.3109 12.5775,26.7689 13.0005,27.2119 C13.8005,28.0499 14.7075,28.9999 16.0005,28.9999 C17.2925,28.9999 18.1995,28.0499 19.0005,27.2119 C19.4225,26.7689 19.8605,26.3109 20.2095,26.1649 C20.5945,26.0059 21.2535,26.0179 21.8885,26.0279 C23.0245,26.0529 24.3135,26.0699 25.1925,25.1919 C26.0715,24.3139 26.0485,23.0259 26.0285,21.8899 C26.0175,21.2529 26.0055,20.5939 26.1655,20.2099 C26.3105,19.8599 26.7685,19.4229 27.2115,18.9999 C28.0495,18.1989 29.0005,17.2929 29.0005,15.9999 C29.0005,14.7069 28.0495,13.8009 27.2115,12.9999 L27.2115,12.9999 Z" id="Fill-2"></path>
            </g>
        </g>
    </g>
</svg>