<svg width="22" height="24" viewBox="0 0 22 24" fill="none" xmlns="http://www.w3.org/2000/svg">
<path d="M21.3 15.1C21.3 15.1 19 14.1 19 8.5C19 4.1 15.4 0.5 11 0.5C6.6 0.5 3 4.1 3 8.5C3 14.1 0.7 15.1 0.7 15.1C0.3 15.2 0 15.6 0 16V19C0 19.6 0.4 20 1 20H6.1C6.6 22.3 8.6 24 11 24C13.4 24 15.4 22.3 15.9 20H21C21.6 20 22 19.6 22 19V16C22 15.6 21.7 15.2 21.3 15.1ZM11 22C9.7 22 8.6 21.2 8.2 20H13.8C13.4 21.2 12.3 22 11 22ZM2 18V16.6C3.1 15.9 5 13.8 5 8.5C5 5.7 7.6 2.5 11 2.5C14.4 2.5 17 5.7 17 8.5C17 13.8 18.9 15.9 20 16.6V18H2Z" fill="#000000"/>
</svg>
