<?xml version="1.0" encoding="UTF-8"?>
<svg width="32px" height="32px" viewBox="0 0 32 32" version="1.1" xmlns="http://www.w3.org/2000/svg" xmlns:xlink="http://www.w3.org/1999/xlink">
    <title>Group 4</title>
    <g id="Page-1" stroke="none" stroke-width="1" fill="none" fill-rule="evenodd">
        <g id="VS-14" transform="translate(-18.000000, -381.000000)" fill="#000000">
            <g id="Group-4" transform="translate(18.000000, 381.000000)">
                <path d="M17,25.7816 L17,17.1336 L19.676,15.4326 L19.676,20.0916 C19.676,20.6436 20.124,21.0916 20.676,21.0916 C21.228,21.0916 21.676,20.6436 21.676,20.0916 L21.676,14.1606 L24.97,12.0656 L24.97,21.1806 L17,25.7816 Z M7.03,12.0656 L15,17.1336 L15,25.7816 L7.03,21.1806 L7.03,12.0656 Z M16,15.3996 L7.958,10.2866 L11.552,8.2116 L18.867,13.5766 L16,15.3996 Z M16,5.6436 L24.042,10.2866 L20.679,12.4246 L13.445,7.1186 L16,5.6436 Z M26.955,10.1316 C26.952,10.1026 26.95,10.0746 26.944,10.0466 C26.92,9.9316 26.88,9.8216 26.82,9.7236 C26.817,9.7186 26.817,9.7136 26.814,9.7086 C26.807,9.6966 26.794,9.6906 26.786,9.6796 C26.728,9.5956 26.657,9.5236 26.575,9.4596 C26.553,9.4426 26.533,9.4246 26.509,9.4086 C26.495,9.3996 26.485,9.3876 26.47,9.3786 L16.5,3.6226 C16.19,3.4436 15.81,3.4436 15.5,3.6226 L5.53,9.3786 C5.515,9.3876 5.505,9.3996 5.491,9.4086 C5.467,9.4246 5.447,9.4426 5.425,9.4596 C5.343,9.5226 5.272,9.5956 5.214,9.6796 C5.206,9.6906 5.193,9.6966 5.186,9.7086 C5.183,9.7136 5.183,9.7186 5.18,9.7236 C5.12,9.8216 5.08,9.9316 5.056,10.0466 C5.05,10.0746 5.048,10.1026 5.045,10.1316 C5.04,10.1696 5.03,10.2066 5.03,10.2456 L5.03,21.7576 C5.03,22.1146 5.22,22.4446 5.53,22.6236 L15.5,28.3796 C15.524,28.3936 15.55,28.3996 15.575,28.4106 C15.601,28.4236 15.628,28.4336 15.656,28.4446 C15.767,28.4856 15.882,28.5136 16,28.5136 C16.118,28.5136 16.233,28.4856 16.344,28.4446 C16.372,28.4336 16.399,28.4236 16.425,28.4106 C16.45,28.3996 16.476,28.3936 16.5,28.3796 L26.47,22.6236 C26.78,22.4446 26.97,22.1146 26.97,21.7576 L26.97,10.2456 C26.97,10.2066 26.96,10.1696 26.955,10.1316 L26.955,10.1316 Z" id="Fill-2"></path>
            </g>
        </g>
    </g>
</svg>