<?xml version="1.0" encoding="UTF-8"?>
<svg width="32px" height="32px" viewBox="0 0 32 32" version="1.1" xmlns="http://www.w3.org/2000/svg" xmlns:xlink="http://www.w3.org/1999/xlink">
    <title>Group 14 Copy 3</title>
    <g id="Page-1" stroke="none" stroke-width="1" fill="none" fill-rule="evenodd">
        <g id="VS-20" transform="translate(-349.000000, -473.000000)" fill="#363434">
            <g id="Group-14-Copy-3" transform="translate(349.000000, 473.000000)">
                <path d="M21,15 L17,15 L17,11 C17,10.448 16.553,10 16,10 C15.447,10 15,10.448 15,11 L15,15 L11,15 C10.447,15 10,15.448 10,16 C10,16.552 10.447,17 11,17 L15,17 L15,21 C15,21.552 15.447,22 16,22 C16.553,22 17,21.552 17,21 L17,17 L21,17 C21.553,17 22,16.552 22,16 C22,15.448 21.553,15 21,15" id="Fill-6"></path>
            </g>
        </g>
    </g>
</svg>