<svg width="32" height="32" viewBox="0 0 32 32" fill="none" xmlns="http://www.w3.org/2000/svg">
<path opacity="0.01" fill-rule="evenodd" clip-rule="evenodd" d="M0 32H32V0H0V32Z" fill="#FEFEFE"/>
<path fill-rule="evenodd" clip-rule="evenodd" d="M16 16C14.897 16 14 15.103 14 14C14 12.897 14.897 12 16 12C17.103 12 18 12.897 18 14C18 15.103 17.103 16 16 16ZM16 10C13.794 10 12 11.794 12 14C12 16.206 13.794 18 16 18C18.206 18 20 16.206 20 14C20 11.794 18.206 10 16 10ZM21.937 14.819L21.917 14.947C21.917 14.95 21.916 14.953 21.916 14.957C21.879 15.184 21.832 15.407 21.767 15.64C20.847 19.133 17.417 22.441 16 23.69C14.583 22.443 11.155 19.138 10.229 15.625C10.168 15.407 10.121 15.184 10.083 14.947L10.064 14.821C10.026 14.552 10 14.279 10 14C10 10.691 12.691 8 16 8C19.309 8 22 10.691 22 14C22 14.279 21.974 14.552 21.937 14.819ZM16 6C11.589 6 8 9.589 8 14C8 14.339 8.026 14.688 8.083 15.097L8.11 15.272C8.158 15.576 8.222 15.874 8.3 16.149C9.634 21.216 15.147 25.602 15.381 25.786C15.563 25.929 15.781 26 16 26C16.219 26 16.437 25.929 16.619 25.786C16.853 25.602 22.366 21.216 23.696 16.165C23.778 15.874 23.842 15.576 23.89 15.272L23.917 15.095C23.974 14.688 24 14.339 24 14C24 9.589 20.411 6 16 6Z" fill="#000000"/>
</svg>
