<svg width="32" height="32" viewBox="0 0 32 32" fill="none" xmlns="http://www.w3.org/2000/svg">
<path opacity="0.01" fill-rule="evenodd" clip-rule="evenodd" d="M0 32H32V0H0V32Z" fill="#FEFEFE"/>
<path fill-rule="evenodd" clip-rule="evenodd" d="M16 11C17.103 11 18 11.897 18 13C18 14.103 17.103 15 16 15C14.897 15 14 14.103 14 13C14 11.897 14.897 11 16 11ZM16 17C18.206 17 20 15.206 20 13C20 10.794 18.206 9 16 9C13.794 9 12 10.794 12 13C12 15.206 13.794 17 16 17Z" fill="#000000"/>
<path fill-rule="evenodd" clip-rule="evenodd" d="M16 25C13.504 25 11.244 23.978 9.612 22.331C10.834 20.908 12.64 20 14.658 20H17.342C19.36 20 21.166 20.908 22.388 22.331C20.756 23.978 18.496 25 16 25ZM7 16C7 11.038 11.038 7 16 7C20.962 7 25 11.038 25 16C25 17.739 24.496 19.359 23.638 20.737C22.059 19.057 19.824 18 17.342 18H14.658C12.176 18 9.941 19.057 8.362 20.737C7.504 19.359 7 17.739 7 16ZM24.814 22.553C24.841 22.517 24.873 22.484 24.9 22.447C24.899 22.445 24.898 22.444 24.897 22.442C26.214 20.629 27 18.407 27 16C27 9.935 22.065 5 16 5C9.935 5 5 9.935 5 16C5 18.407 5.786 20.629 7.103 22.442C7.102 22.444 7.101 22.445 7.1 22.447C7.127 22.484 7.159 22.517 7.187 22.554C7.358 22.784 7.535 23.007 7.723 23.222C7.772 23.278 7.823 23.332 7.874 23.388C8.065 23.598 8.262 23.801 8.469 23.996C8.49 24.016 8.508 24.038 8.529 24.058C8.53 24.056 8.531 24.055 8.532 24.053C10.496 25.875 13.116 27 16 27C18.884 27 21.504 25.875 23.468 24.053C23.469 24.055 23.47 24.056 23.471 24.058C23.492 24.038 23.51 24.016 23.531 23.996C23.738 23.801 23.936 23.597 24.127 23.387C24.177 23.332 24.228 23.278 24.277 23.222C24.465 23.007 24.643 22.783 24.814 22.553Z" fill="#000000"/>
</svg>
