<?xml version="1.0" encoding="UTF-8"?>
<svg width="32px" height="32px" viewBox="0 0 32 32" version="1.1" xmlns="http://www.w3.org/2000/svg" xmlns:xlink="http://www.w3.org/1999/xlink">
    <title>znak-kachestva</title>
    <g id="Page-1" stroke="none" stroke-width="1" fill="none" fill-rule="evenodd">
        <g id="iPhone-11-/-11-Pro-Max-01" transform="translate(-46.000000, -656.000000)" fill-rule="nonzero">
            <g id="znak-kachestva" transform="translate(46.000000, 656.000000)">
                <rect id="Rectangle-Copy-9_31_" fill="#FFFFFF" opacity="0" x="0" y="0" width="32" height="32"></rect>
                <path d="M26.8,11.7 L17.2,5 C16.5,4.5 15.6,4.5 14.9,5 L5.3,11.7 C4.6,12.2 4.3,13.1 4.5,14 L8.1,24.7 C8.4,25.5 9.1,26.1 10,26.1 L22,26.1 C22.9,26.1 23.6,25.6 23.9,24.7 L27.5,14 C27.8,13.1 27.5,12.2 26.8,11.7 Z M23,15.1 L19.4,17.8 L20.8,22.1 C20.9,22.4 20.8,22.7 20.5,22.9 C20.4,23 20.2,23 20.1,23 C20,23 19.8,23 19.7,22.9 L16,20.2 L12.3,22.8 C12.1,23 11.7,23 11.5,22.8 C11.3,22.6 11.2,22.3 11.2,22 L12.6,17.7 L9,15.1 C8.8,14.9 8.7,14.6 8.8,14.3 C8.9,14 9.2,13.8 9.5,13.8 L14,13.8 L15.4,9.5 C15.4,9.2 15.7,9 16,9 C16.3,9 16.6,9.2 16.7,9.5 L18.1,13.8 L22.6,13.8 C22.9,13.8 23.2,14 23.3,14.3 C23.4,14.6 23.3,14.9 23,15.1 Z" id="Shape" fill="#e31e24"></path>
            </g>
        </g>
    </g>
</svg>