<svg width="32" height="32" viewBox="0 0 32 32" fill="none" xmlns="http://www.w3.org/2000/svg">
<path opacity="0.01" fill-rule="evenodd" clip-rule="evenodd" d="M0 32H32V0H0V32Z" fill="white"/>
<path fill-rule="evenodd" clip-rule="evenodd" d="M25.5068 7.49324C25.1158 7.10224 24.4838 7.10224 24.0928 7.49324L8.49276 23.0932C8.10276 23.4832 8.10276 24.1162 8.49276 24.5072C8.68876 24.7022 8.94476 24.8002 9.19976 24.8002C9.45576 24.8002 9.71176 24.7022 9.90676 24.5072L25.5068 8.90724C25.8978 8.51624 25.8978 7.88424 25.5068 7.49324ZM22.4008 24.0002C20.9668 24.0002 19.7998 22.8332 19.7998 21.4002C19.7998 19.9662 20.9668 18.8002 22.4008 18.8002C23.8338 18.8002 24.9998 19.9662 24.9998 21.4002C24.9998 22.8332 23.8338 24.0002 22.4008 24.0002ZM22.4008 16.8002C19.8628 16.8002 17.7998 18.8632 17.7998 21.4002C17.7998 23.9362 19.8628 26.0002 22.4008 26.0002C24.9368 26.0002 26.9998 23.9362 26.9998 21.4002C26.9998 18.8632 24.9368 16.8002 22.4008 16.8002ZM11.5998 8.00024C13.0328 8.00024 14.1998 9.16624 14.1998 10.6002C14.1998 12.0342 13.0328 13.2002 11.5998 13.2002C10.1658 13.2002 8.99976 12.0342 8.99976 10.6002C8.99976 9.16624 10.1658 8.00024 11.5998 8.00024ZM11.5998 15.2002C14.1368 15.2002 16.1998 13.1372 16.1998 10.6002C16.1998 8.06324 14.1368 6.00024 11.5998 6.00024C9.06376 6.00024 6.99976 8.06324 6.99976 10.6002C6.99976 13.1372 9.06376 15.2002 11.5998 15.2002Z" fill="#000000"/>
</svg>
