<?xml version="1.0" encoding="UTF-8"?>
<svg width="22px" height="22px" viewBox="0 0 22 22" version="1.1" xmlns="http://www.w3.org/2000/svg" xmlns:xlink="http://www.w3.org/1999/xlink">
    <title>Shape</title>
    <g id="Page-1" stroke="none" stroke-width="1" fill-rule="evenodd">
        <g id="iPhone-11-/-11-Pro-Max-05" transform="translate(-309.000000, -77.000000)" fill-rule="nonzero">
            <g id="serch" transform="translate(304.000000, 72.000000)">
                <path d="M26.4,23.6 L21.6,18.8 C22.5,17.4 23,15.8 23,14 C23,9 19,5 14,5 C9,5 5,9 5,14 C5,19 9,23 14,23 C15.8,23 17.4,22.5 18.8,21.6 L23.6,26.4 C24,26.8 24.5,27 25,27 C25.5,27 26,26.8 26.4,26.4 C27.2,25.6 27.2,24.4 26.4,23.6 Z M9,14 C9,11.2 11.2,9 14,9 C16.8,9 19,11.2 19,14 C19,16.8 16.8,19 14,19 C11.2,19 9,16.8 9,14 Z" id="Shape"></path>
            </g>
        </g>
    </g>
</svg>