<?xml version="1.0" encoding="UTF-8"?>
<svg width="32px" height="32px" viewBox="0 0 32 32" version="1.1" xmlns="http://www.w3.org/2000/svg" xmlns:xlink="http://www.w3.org/1999/xlink">
    <title>Group 4</title>
    <g id="Page-1" stroke="none" stroke-width="1" fill="none" fill-rule="evenodd">
        <g id="VS-14" transform="translate(-18.000000, -545.000000)" fill="#000000">
            <g id="Group-4" transform="translate(18.000000, 545.000000)">
                <path d="M20.1202,16.104 L26.0002,11.71 L26.0002,21.23 L20.1202,16.104 Z M13.5192,17.329 L14.5772,18.12 C14.9902,18.427 15.4942,18.581 16.0002,18.581 C16.5052,18.581 17.0112,18.427 17.4232,18.12 L18.4812,17.329 L24.9862,23 L7.0142,23 L13.5192,17.329 Z M11.8802,16.104 L6.0002,21.23 L6.0002,11.71 L11.8802,16.104 Z M16.2252,16.517 C16.1142,16.601 15.8862,16.601 15.7742,16.517 L7.0532,10 L24.9472,10 L16.2252,16.517 Z M26.0002,8 L6.0002,8 C4.8972,8 4.0002,8.897 4.0002,10 L4.0002,23 C4.0002,24.103 4.8972,25 6.0002,25 L26.0002,25 C27.1032,25 28.0002,24.103 28.0002,23 L28.0002,10 C28.0002,8.897 27.1032,8 26.0002,8 L26.0002,8 Z" id="Fill-2"></path>
            </g>
        </g>
    </g>
</svg>