<?xml version="1.0" encoding="UTF-8"?>
<svg width="32px" height="32px" viewBox="0 0 32 32" version="1.1" xmlns="http://www.w3.org/2000/svg" xmlns:xlink="http://www.w3.org/1999/xlink">
    <title>Group 4</title>
    <g id="Page-1" stroke="none" stroke-width="1" fill="none" fill-rule="evenodd">
        <g id="VS-14" transform="translate(-18.000000, -627.000000)" fill="#9D9B9B">
            <g id="Group-4" transform="translate(18.000000, 627.000000)">
                <path d="M23.9864,6.6122 L23.9644,6.6122 L23.9424,6.6122 C22.8704,6.6362 21.7454,7.0312 16.4214,9.2542 C14.5884,10.0212 10.8534,11.6412 5.7774,13.8452 C5.1724,14.0942 3.4654,14.7952 3.2424,16.4262 C2.9744,18.6772 5.1694,19.3582 6.2234,19.6852 L6.5864,19.7992 C8.0994,20.2872 9.2444,20.5442 9.9864,20.5612 L10.0844,20.5622 C10.6634,20.5622 11.2434,20.4432 11.8354,20.2002 C12.0694,21.5422 13.2394,22.3092 13.6384,22.5702 C14.3304,23.0272 14.8934,23.4112 15.4474,23.7892 C16.1374,24.2602 16.8144,24.7222 17.7084,25.3042 C17.8874,25.4222 18.0654,25.5492 18.2394,25.6722 C19.0704,26.2642 20.1054,27.0002 21.5134,27.0002 C21.6244,27.0002 21.7374,26.9952 21.8514,26.9852 C22.7664,26.9002 24.3544,26.3352 24.8904,23.4982 C25.4524,20.5172 26.6794,13.3512 26.9764,10.2502 C27.0314,9.7682 26.9834,9.2562 26.9184,8.9332 C26.8674,8.6772 26.7114,7.8982 25.9794,7.2882 C25.2414,6.6972 24.4154,6.6122 23.9864,6.6122 M23.9864,8.6122 C24.1384,8.6122 24.4714,8.6422 24.6994,8.8242 C24.8814,8.9762 24.9264,9.1732 24.9574,9.3252 C24.9874,9.4772 25.0174,9.7952 24.9874,10.0382 C24.7144,12.9192 23.5314,19.9122 22.9244,23.1272 C22.6664,24.4922 22.1664,24.9472 21.6814,24.9932 C21.6244,24.9972 21.5684,25.0002 21.5134,25.0002 C20.5324,25.0002 19.7614,24.2592 18.7994,23.6282 C17.1914,22.5812 16.2964,21.9292 14.7344,20.8972 C12.9294,19.7142 14.0974,19.0622 15.1284,18.0012 C15.4014,17.7282 20.0584,13.4812 20.1494,13.1022 C20.1644,13.0562 20.1644,12.8742 20.0584,12.7832 C20.0054,12.7372 19.9404,12.7222 19.8744,12.7222 C19.8074,12.7222 19.7394,12.7372 19.6794,12.7532 C19.5124,12.7832 16.9644,14.4822 12.0044,17.8342 C11.2974,18.3192 10.6624,18.5622 10.0844,18.5622 C10.0674,18.5622 10.0504,18.5622 10.0324,18.5622 C9.3804,18.5472 8.1364,18.1982 7.1964,17.8942 C6.0584,17.5302 5.1484,17.3332 5.2244,16.6962 C5.2704,16.3622 5.7254,16.0292 6.5744,15.6802 C11.8834,13.3752 15.4174,11.8432 17.1914,11.0992 C22.2424,8.9912 23.3044,8.6272 23.9864,8.6122" id="Fill-2"></path>
            </g>
        </g>
    </g>
</svg>