<?xml version="1.0" encoding="UTF-8"?>
<svg width="18px" height="18px" viewBox="0 0 24 24" version="1.1" xmlns="http://www.w3.org/2000/svg" xmlns:xlink="http://www.w3.org/1999/xlink">
    <title>Untitled</title>
    <g id="Page-1" stroke="none" stroke-width="1" fill="none" fill-rule="evenodd">
        <g id="time" fill="#A7A7A7" fill-rule="nonzero">
            <path d="M12,0 C5.37258562,0 0,5.37258562 0,12 C0,18.6274144 5.37258562,24 12,24 C18.6274144,24 24,18.6274144 24,12 C23.9929687,5.37554879 18.6245014,0.00708148309 12,0 Z M12,22.2857286 C6.31934475,22.2857286 1.71427136,17.6806552 1.71427136,12 C1.71427136,6.31934475 6.31934475,1.71427136 12,1.71427136 C17.6806552,1.71427136 22.2857286,6.31934475 22.2857286,12 C22.2796014,17.6781441 17.6781441,22.2796014 12,22.2857286 Z" id="Shape"></path>
            <path d="M11.9999824,3 C11.4476788,3 10.9999648,3.44771397 10.9999648,4.00001758 L10.9999648,11.0000234 L4.00001758,11.0000234 C3.44771397,11.0000234 3,11.4477374 3,12.000041 C3,12.5523446 3.44771397,13 4.00001758,13 L11.9999824,13 C12.552286,13 13,12.552286 13,11.9999824 L13,4.00001758 C13,3.44771397 12.552286,3 11.9999824,3 Z" id="Path"></path>
        </g>
    </g>
</svg>