<?xml version="1.0" encoding="UTF-8"?>
<svg width="22px" height="20px" viewBox="0 0 22 20" version="1.1" xmlns="http://www.w3.org/2000/svg" xmlns:xlink="http://www.w3.org/1999/xlink">
    <title>Shape</title>
    <g id="Page-1" stroke="none" stroke-width="1" fill-rule="evenodd">
        <g id="iPhone-11-/-11-Pro-Max-17" transform="translate(-29.000000, -461.000000)" fill-rule="nonzero">
            <g id="korz-back-fin" transform="translate(24.000000, 455.000000)">
                <path d="M25.2,9 L21,9 L19.8,6.8 C19.5,6.3 18.9,6 18.3,6 L13.7,6 C13.1,6 12.5,6.3 12.2,6.8 L11,9 L6.8,9 C5.8,9 5,9.9 5,11 C5,12.1 5.8,13 6.8,13 L7,13 L7,24 C7,25.1 7.9,26 9,26 L23,26 C24.1,26 25,25.1 25,24 L25,13 L25.2,13 C26.2,13 27,12.1 27,11 C27,9.9 26.2,9 25.2,9 Z M14,21.5 C14,22.3 13.3,23 12.5,23 C11.7,23 11,22.3 11,21.5 L11,14.5 C11,13.7 11.7,13 12.5,13 C13.3,13 14,13.7 14,14.5 L14,21.5 Z M21,21.5 C21,22.3 20.3,23 19.5,23 C18.7,23 18,22.3 18,21.5 L18,14.5 C18,13.7 18.7,13 19.5,13 C20.3,13 21,13.7 21,14.5 L21,21.5 Z" id="Shape"></path>
            </g>
        </g>
    </g>
</svg>