<?xml version="1.0" encoding="UTF-8"?>
<svg width="32px" height="32px" viewBox="0 0 32 32" version="1.1" xmlns="http://www.w3.org/2000/svg" xmlns:xlink="http://www.w3.org/1999/xlink">
    <title>Group 4</title>
    <g id="Page-1" stroke="none" stroke-width="1" fill="none" fill-rule="evenodd">
        <g id="VS-14" transform="translate(-18.000000, -709.000000)" fill="#9D9B9B">
            <g id="Group-4" transform="translate(18.000000, 709.000000)">
                <path d="M28.5212,7.624 L26.1382,7.624 L22.4312,7.624 L20.9182,7.624 L20.5072,9.08 C20.2052,10.148 19.6282,11.122 18.9722,11.866 L18.9722,9.624 L18.9722,7.624 L16.9722,7.624 L13.2662,7.624 L11.2662,7.624 L11.2662,9.624 L11.2662,15.468 C10.3672,13.831 9.9752,11.564 9.9362,9.585 L9.8972,7.624 L7.9362,7.624 L4.0002,7.624 L1.9582,7.624 L2.0002,9.666 C2.2132,19.878 7.6442,25.976 16.5272,25.976 L16.9722,25.976 L18.9722,25.976 L18.9722,23.976 L18.9722,21.676 C19.8932,22.336 20.6162,23.344 21.0162,24.587 L21.4612,25.976 L22.9202,25.976 L27.0002,25.976 L29.6232,25.976 L28.9282,23.446 C28.0182,20.132 26.1482,17.96 24.5232,16.624 C26.1402,15.018 27.6192,12.744 28.1072,9.971 L28.5212,7.624 Z M26.1382,9.624 C25.5202,13.129 22.9342,15.715 21.0952,16.778 C22.9342,17.64 25.8792,19.896 27.0002,23.976 L22.9202,23.976 C22.0432,21.246 19.8602,19.134 16.9722,18.847 L16.9722,23.976 L16.5272,23.976 C8.6692,23.976 4.1872,18.588 4.0002,9.624 L7.9362,9.624 C8.0652,16.204 10.9672,18.991 13.2662,19.565 L13.2662,9.624 L16.9722,9.624 L16.9722,15.299 C19.2422,15.054 21.6272,12.468 22.4312,9.624 L26.1382,9.624 L26.1382,9.624 Z" id="Fill-2"></path>
            </g>
        </g>
    </g>
</svg>