<svg width="250" height="200" viewBox="0 0 250 200" fill="none" xmlns="http://www.w3.org/2000/svg">
<path fill-rule="evenodd" clip-rule="evenodd" d="M56 127C56 130.866 59.134 134 63 134H209C212.866 134 216 130.866 216 127C216 123.134 212.866 120 209 120H203C199.134 120 196 116.866 196 113C196 109.134 199.134 106 203 106H222C225.866 106 229 102.866 229 99C229 95.134 225.866 92 222 92H200C203.866 92 207 88.866 207 85C207 81.134 203.866 78 200 78H136C139.866 78 143 74.866 143 71C143 67.134 139.866 64 136 64H79C75.134 64 72 67.134 72 71C72 74.866 75.134 78 79 78H39C35.134 78 32 81.134 32 85C32 88.866 35.134 92 39 92H64C67.866 92 71 95.134 71 99C71 102.866 67.866 106 64 106H24C20.134 106 17 109.134 17 113C17 116.866 20.134 120 24 120H63C59.134 120 56 123.134 56 127ZM233 127C233 130.866 229.866 134 226 134C222.134 134 219 130.866 219 127C219 123.134 222.134 120 226 120C229.866 120 233 123.134 233 127Z" fill="#F3F7FF"/>
<path fill-rule="evenodd" clip-rule="evenodd" d="M156.873 142.119C159.911 140.164 162.612 137.725 164.37 135.755L156.873 142.119ZM167.205 132.483C168.659 130.703 169.966 128.841 171.125 126.914C173.675 122.675 175.513 118.122 176.637 113.427C177.773 108.679 178.178 103.787 177.849 98.9299C177.562 94.6919 176.716 90.4811 175.31 86.417C173.915 82.385 171.968 78.4975 169.467 74.8711C167.977 72.7103 166.29 70.6421 164.407 68.6915C161.641 65.8276 158.607 63.3792 155.384 61.3478C151.921 59.1652 148.239 57.464 144.435 56.2461C139.671 54.7208 134.715 53.9536 129.759 53.948C125.903 53.9437 122.046 54.4004 118.279 55.32C114.037 56.3553 109.909 57.9772 106.022 60.1881C102.605 62.1316 99.375 64.5303 96.418 67.3859C92.7019 70.9745 89.6918 75.0197 87.3904 79.349C85.1373 83.5876 83.5635 88.0984 82.6715 92.7194C81.7525 97.4803 81.5573 102.358 82.0887 107.176C82.7773 113.42 84.6865 119.564 87.8223 125.22C89.8288 128.839 92.3375 132.259 95.35 135.379C100.132 140.331 105.716 144.041 111.696 146.5C118.968 149.492 126.827 150.634 134.545 149.913C141.023 149.308 147.401 147.391 153.251 144.153" fill="white"/>
<path d="M156.197 141.068C155.616 141.441 155.448 142.215 155.822 142.795C156.195 143.376 156.969 143.544 157.549 143.17L156.197 141.068ZM165.302 136.588C165.762 136.073 165.717 135.282 165.202 134.823C164.687 134.363 163.897 134.408 163.437 134.923L165.302 136.588ZM171.125 126.914L170.054 126.269L171.125 126.914ZM176.637 113.427L177.852 113.718L176.637 113.427ZM177.849 98.9299L179.096 98.8455L177.849 98.9299ZM175.31 86.417L174.129 86.8258L175.31 86.417ZM169.467 74.8711L168.438 75.5807L169.467 74.8711ZM164.407 68.6915L163.507 69.5598L164.407 68.6915ZM155.384 61.3478L156.051 60.2903L155.384 61.3478ZM144.435 56.2461L144.054 57.4366L144.435 56.2461ZM129.759 53.948L129.758 55.198L129.759 53.948ZM118.279 55.32L118.575 56.5344L118.279 55.32ZM106.022 60.1881L105.404 59.1015L106.022 60.1881ZM96.418 67.3859L97.2863 68.2851L96.418 67.3859ZM87.3904 79.349L86.2867 78.7623L87.3904 79.349ZM82.6715 92.7194L81.4442 92.4825L82.6715 92.7194ZM82.0887 107.176L80.8462 107.313L82.0887 107.176ZM87.8223 125.22L88.9155 124.614L87.8223 125.22ZM95.35 135.379L96.2492 134.51L95.35 135.379ZM111.696 146.5L111.22 147.656L111.696 146.5ZM134.545 149.913L134.429 148.668L134.545 149.913ZM153.856 145.247C154.46 144.913 154.679 144.152 154.345 143.548C154.01 142.944 153.25 142.725 152.646 143.06L153.856 145.247ZM157.549 143.17C160.69 141.149 163.476 138.635 165.302 136.588L163.437 134.923C161.749 136.815 159.133 139.178 156.197 141.068L157.549 143.17ZM168.174 133.273C169.665 131.447 171.006 129.536 172.196 127.558L170.054 126.269C168.925 128.145 167.653 129.958 166.237 131.692L168.174 133.273ZM172.196 127.558C174.813 123.208 176.7 118.535 177.852 113.718L175.421 113.136C174.327 117.708 172.537 122.142 170.054 126.269L172.196 127.558ZM177.852 113.718C179.018 108.846 179.433 103.827 179.096 98.8455L176.602 99.0143C176.922 103.746 176.527 108.512 175.421 113.136L177.852 113.718ZM179.096 98.8455C178.802 94.4981 177.934 90.1781 176.491 86.0082L174.129 86.8258C175.499 90.7841 176.322 94.8858 176.602 99.0143L179.096 98.8455ZM176.491 86.0082C175.06 81.8711 173.062 77.8821 170.496 74.1615L168.438 75.5807C170.874 79.1128 172.77 82.8989 174.129 86.8258L176.491 86.0082ZM170.496 74.1615C168.967 71.9445 167.237 69.8232 165.306 67.8232L163.507 69.5598C165.343 71.461 166.987 73.476 168.438 75.5807L170.496 74.1615ZM165.306 67.8232C162.47 64.8865 159.358 62.3748 156.051 60.2903L154.718 62.4053C157.857 64.3836 160.812 66.7686 163.507 69.5598L165.306 67.8232ZM156.051 60.2903C152.497 58.0507 148.719 56.3052 144.816 55.0556L144.054 57.4366C147.759 58.6228 151.345 60.2797 154.718 62.4053L156.051 60.2903ZM144.816 55.0556C139.928 53.4908 134.844 52.7037 129.76 52.698L129.758 55.198C134.586 55.2035 139.413 55.9509 144.054 57.4366L144.816 55.0556ZM129.76 52.698C125.805 52.6936 121.848 53.1621 117.982 54.1057L118.575 56.5344C122.244 55.6388 126.001 55.1938 129.758 55.198L129.76 52.698ZM117.982 54.1057C113.63 55.168 109.394 56.8324 105.404 59.1015L106.64 61.2746C110.425 59.122 114.444 57.5426 118.575 56.5344L117.982 54.1057ZM105.404 59.1015C101.897 61.0964 98.5826 63.5578 95.5496 66.4867L97.2863 68.2851C100.167 65.5028 103.314 63.1668 106.64 61.2746L105.404 59.1015ZM95.5496 66.4867C91.738 70.1676 88.6489 74.3186 86.2867 78.7623L88.4942 79.9357C90.7347 75.7209 93.6658 71.7813 97.2863 68.2851L95.5496 66.4867ZM86.2867 78.7623C83.9742 83.1125 82.3593 87.7415 81.4442 92.4825L83.8988 92.9563C84.7676 88.4553 86.3004 84.0626 88.4942 79.9357L86.2867 78.7623ZM81.4442 92.4825C80.5014 97.3669 80.3011 102.371 80.8462 107.313L83.3311 107.039C82.8135 102.346 83.0037 97.5937 83.8988 92.9563L81.4442 92.4825ZM80.8462 107.313C81.5526 113.719 83.5113 120.022 86.7291 125.826L88.9155 124.614C85.8617 119.105 84.002 113.122 83.3311 107.039L80.8462 107.313ZM86.7291 125.826C88.788 129.54 91.3618 133.048 94.4508 136.247L96.2492 134.51C93.3132 131.47 90.8695 128.138 88.9155 124.614L86.7291 125.826ZM94.4508 136.247C99.3552 141.326 105.084 145.132 111.22 147.656L112.171 145.344C106.348 142.949 100.909 139.336 96.2492 134.51L94.4508 136.247ZM111.22 147.656C118.682 150.725 126.744 151.897 134.661 151.158L134.429 148.668C126.91 149.37 119.254 148.258 112.171 145.344L111.22 147.656ZM134.661 151.158C141.307 150.537 147.852 148.57 153.856 145.247L152.646 143.06C146.95 146.212 140.739 148.079 134.429 148.668L134.661 151.158Z" fill="black"/>
<path d="M176.5 45V51" stroke="black" stroke-width="2.5" stroke-linecap="round" stroke-linejoin="round"/>
<path d="M176.5 59V65" stroke="black" stroke-width="2.5" stroke-linecap="round" stroke-linejoin="round"/>
<path d="M166.5 55H172.5" stroke="black" stroke-width="2.5" stroke-linecap="round" stroke-linejoin="round"/>
<path d="M180.5 55H186.5" stroke="#A4C3FE" stroke-width="2.5" stroke-linecap="round" stroke-linejoin="round"/>
<path d="M93.5 148V152" stroke="#A4C3FE" stroke-width="2.5" stroke-linecap="round" stroke-linejoin="round"/>
<path d="M93.5 160V164" stroke="black" stroke-width="2.5" stroke-linecap="round" stroke-linejoin="round"/>
<path d="M85.5 156H89.5" stroke="black" stroke-width="2.5" stroke-linecap="round" stroke-linejoin="round"/>
<path d="M97.5 156H101.5" stroke="black" stroke-width="2.5" stroke-linecap="round" stroke-linejoin="round"/>
<path fill-rule="evenodd" clip-rule="evenodd" d="M115.182 62.7014C113.143 63.4663 111.152 64.3957 109.228 65.4901C106.238 67.1906 103.411 69.2895 100.824 71.7881C99.7633 72.8124 98.7684 73.8791 97.8393 74.9832M94.9644 78.827C94.2256 79.9434 93.5457 81.0878 92.9248 82.2559C92.4662 83.1186 92.0398 83.9941 91.6456 84.8808" fill="white"/>
<path d="M115.621 63.8717C116.267 63.6292 116.595 62.9087 116.352 62.2623C116.11 61.6159 115.389 61.2885 114.743 61.531L115.621 63.8717ZM109.228 65.4901L109.846 66.5766L109.228 65.4901ZM100.824 71.7881L99.9556 70.889L100.824 71.7881ZM96.8829 74.1783C96.4384 74.7065 96.5062 75.495 97.0344 75.9396C97.5626 76.3841 98.3512 76.3162 98.7957 75.788L96.8829 74.1783ZM96.0068 79.5169C96.3878 78.9411 96.2299 78.1656 95.6542 77.7846C95.0785 77.4036 94.3029 77.5615 93.922 78.1372L96.0068 79.5169ZM92.9248 82.2559L94.0286 82.8426L92.9248 82.2559ZM90.5034 84.373C90.2229 85.0038 90.5069 85.7425 91.1377 86.023C91.7685 86.3035 92.5073 86.0195 92.7878 85.3887L90.5034 84.373ZM114.743 61.531C112.643 62.3189 110.592 63.2762 108.61 64.4035L109.846 66.5766C111.712 65.5151 113.643 64.6137 115.621 63.8717L114.743 61.531ZM108.61 64.4035C105.53 66.1554 102.619 68.317 99.9556 70.889L101.692 72.6873C104.204 70.262 106.946 68.2259 109.846 66.5766L108.61 64.4035ZM99.9556 70.889C98.8639 71.9432 97.8396 73.0414 96.8829 74.1783L98.7957 75.788C99.6971 74.7169 100.663 73.6816 101.692 72.6873L99.9556 70.889ZM93.922 78.1372C93.161 79.2871 92.4607 80.4659 91.8211 81.6691L94.0286 82.8426C94.6308 81.7097 95.2902 80.5997 96.0068 79.5169L93.922 78.1372ZM91.8211 81.6691C91.3487 82.5578 90.9095 83.4597 90.5034 84.373L92.7878 85.3887C93.1702 84.5286 93.5838 83.6793 94.0286 82.8426L91.8211 81.6691Z" fill="black"/>
<path d="M110.98 101.369C109.524 100.057 107.265 100.157 105.935 101.593C104.604 103.03 104.706 105.257 106.163 106.569L122.971 121.71C125.01 123.546 128.172 123.405 130.035 121.395C130.113 121.309 130.113 121.309 130.188 121.222L154.175 92.7735C155.436 91.2779 155.228 89.0574 153.712 87.8139C152.195 86.5703 149.943 86.7747 148.682 88.2703L126.131 115.016L110.98 101.369Z" fill="#E8F0FE" stroke="black" stroke-width="2.5"/>
</svg>
