<svg width="250" height="200" viewBox="0 0 250 200" fill="none" xmlns="http://www.w3.org/2000/svg">
<path fill-rule="evenodd" clip-rule="evenodd" d="M56 127C56 130.866 59.134 134 63 134H209C212.866 134 216 130.866 216 127C216 123.134 212.866 120 209 120H203C199.134 120 196 116.866 196 113C196 109.134 199.134 106 203 106H222C225.866 106 229 102.866 229 99C229 95.134 225.866 92 222 92H200C203.866 92 207 88.866 207 85C207 81.134 203.866 78 200 78H136C139.866 78 143 74.866 143 71C143 67.134 139.866 64 136 64H79C75.134 64 72 67.134 72 71C72 74.866 75.134 78 79 78H39C35.134 78 32 81.134 32 85C32 88.866 35.134 92 39 92H64C67.866 92 71 95.134 71 99C71 102.866 67.866 106 64 106H24C20.134 106 17 109.134 17 113C17 116.866 20.134 120 24 120H63C59.134 120 56 123.134 56 127ZM233 127C233 130.866 229.866 134 226 134C222.134 134 219 130.866 219 127C219 123.134 222.134 120 226 120C229.866 120 233 123.134 233 127Z" fill="#F3F7FF"/>
<path fill-rule="evenodd" clip-rule="evenodd" d="M92 140C79.8497 140 70 130.374 70 118.5C70 106.626 79.8497 97 92 97C92.5167 97 93.0292 97.0174 93.537 97.0517C93.1842 95.0878 93 93.0654 93 91C93 72.2223 108.222 57 127 57C141.991 57 154.716 66.702 159.239 80.1695C160.31 80.0575 161.398 80 162.5 80C179.345 80 193 93.4315 193 110C193 125.741 180.675 138.727 165 139.978V140H108.508M103.996 140H97.0314H103.996Z" fill="white"/>
<path d="M92 141.25C92.6904 141.25 93.25 140.69 93.25 140C93.25 139.31 92.6904 138.75 92 138.75V141.25ZM93.537 97.0517L93.4529 98.2988L95.0504 98.4066L94.7673 96.8306L93.537 97.0517ZM159.239 80.1695L158.054 80.5674L158.372 81.5169L159.369 81.4127L159.239 80.1695ZM165 139.978L164.901 138.732L163.75 138.824V139.978H165ZM165 140V141.25H166.25V140H165ZM108.508 138.75C107.817 138.75 107.258 139.31 107.258 140C107.258 140.69 107.817 141.25 108.508 141.25V138.75ZM103.996 141.25C104.686 141.25 105.246 140.69 105.246 140C105.246 139.31 104.686 138.75 103.996 138.75V141.25ZM97.0314 138.75C96.341 138.75 95.7814 139.31 95.7814 140C95.7814 140.69 96.341 141.25 97.0314 141.25V138.75ZM92 138.75C80.5128 138.75 71.25 129.657 71.25 118.5H68.75C68.75 131.091 79.1866 141.25 92 141.25V138.75ZM71.25 118.5C71.25 107.343 80.5128 98.25 92 98.25V95.75C79.1866 95.75 68.75 105.909 68.75 118.5H71.25ZM92 98.25C92.4886 98.25 92.9731 98.2665 93.4529 98.2988L93.6211 95.8045C93.0853 95.7684 92.5448 95.75 92 95.75V98.25ZM94.7673 96.8306C94.4275 94.9394 94.25 92.991 94.25 91H91.75C91.75 93.1399 91.9408 95.2362 92.3067 97.2727L94.7673 96.8306ZM94.25 91C94.25 72.9127 108.913 58.25 127 58.25V55.75C107.532 55.75 91.75 71.532 91.75 91H94.25ZM127 58.25C141.438 58.25 153.697 67.5936 158.054 80.5674L160.424 79.7716C155.735 65.8104 142.544 55.75 127 55.75V58.25ZM159.369 81.4127C160.397 81.3052 161.442 81.25 162.5 81.25V78.75C161.355 78.75 160.223 78.8097 159.109 78.9263L159.369 81.4127ZM162.5 81.25C178.674 81.25 191.75 94.1412 191.75 110H194.25C194.25 92.7217 180.015 78.75 162.5 78.75V81.25ZM191.75 110C191.75 125.07 179.945 137.532 164.901 138.732L165.099 141.224C181.406 139.923 194.25 126.411 194.25 110H191.75ZM163.75 139.978V140H166.25V139.978H163.75ZM165 138.75H108.508V141.25H165V138.75ZM103.996 138.75H97.0314V141.25H103.996V138.75Z" fill="#8A8A8A"/>
<path d="M137 69C143.509 70.7226 148.648 75.8129 150.44 82.2932" stroke="#8A8A8A" stroke-width="2.5" stroke-linecap="round"/>
<path d="M108 101C108 104.866 111.134 108 115 108C118.866 108 122 104.866 122 101" stroke="#8A8A8A" stroke-width="2.5" stroke-linecap="round"/>
<path d="M137 101C137 104.866 140.134 108 144 108C147.866 108 151 104.866 151 101" stroke="#8A8A8A" stroke-width="2.5" stroke-linecap="round"/>
<path d="M122 120H136.5" stroke="#75A4FE" stroke-width="2.5" stroke-linecap="round"/>
<path fill-rule="evenodd" clip-rule="evenodd" d="M69.1559 60.292H57.2099V62.668H65.6579L56.5059 73.756V76H69.3759V73.624H60.0039L69.1559 62.382V60.292ZM82.5679 75.576H73.8799V77.304H80.0239L73.3679 85.368V87H82.7279V85.272H75.9119L82.5679 77.096V75.576Z" fill="#8A8A8A"/>
</svg>
