<svg width="18" height="18" viewBox="0 0 18 18" fill="none" xmlns="http://www.w3.org/2000/svg">
<path d="M17.7545 1.39091C17.9185 1.23537 18.0003 1.04446 18 0.818183C18.0003 0.591905 17.9185 0.39645 17.7545 0.231819C17.599 0.0769543 17.4081 -0.000318384 17.1818 1.21837e-06C16.9555 -0.000353895 16.76 0.0769188 16.5955 0.231819L9 7.84091L1.39091 0.231819C1.23537 0.0769188 1.04446 -0.000353895 0.818183 1.21837e-06C0.591905 -0.000318384 0.39645 0.0769543 0.231819 0.231819C0.0769543 0.39645 -0.000318384 0.591905 1.21837e-06 0.818183C-0.000353895 1.04446 0.0769188 1.23537 0.231819 1.39091L7.84091 9L0.231819 16.5955C0.0769188 16.76 -0.000353895 16.9555 1.21837e-06 17.1818C-0.000318384 17.4081 0.0769543 17.599 0.231819 17.7545C0.39645 17.9185 0.591905 18.0003 0.818183 18C1.04446 18.0003 1.23537 17.9185 1.39091 17.7545L9 10.1591L16.5955 17.7545C16.76 17.9185 16.9555 18.0003 17.1818 18C17.4081 18.0003 17.599 17.9185 17.7545 17.7545C17.9185 17.599 18.0003 17.4081 18 17.1818C18.0003 16.9555 17.9185 16.76 17.7545 16.5955L10.1591 9L17.7545 1.39091Z" fill="black"/>
</svg>
