<svg width="20" height="18" viewBox="0 0 20 18" fill="none" xmlns="http://www.w3.org/2000/svg">
<path d="M7.79772 17.1082C8.05873 17.3694 8.38499 17.5 8.71126 17.5C9.03752 17.5 9.36378 17.3694 9.6248 17.1082C10.1468 16.5858 10.1468 15.7696 9.6248 15.2472L4.46982 10.056H18.6949C19.4127 10.056 20 9.46828 20 8.75C20 8.03172 19.4127 7.44403 18.6949 7.44403H4.46982L9.65742 2.2528C10.1794 1.73041 10.1794 0.914179 9.65742 0.391791C9.1354 -0.130597 8.31974 -0.130597 7.79772 0.391791L0.391517 7.83582C-0.130506 8.35821 -0.130506 9.17444 0.391517 9.69683L7.79772 17.1082Z" fill="black"/>
</svg>
