<svg width="197" height="159" viewBox="0 0 197 159" fill="none" xmlns="http://www.w3.org/2000/svg">
<path fill-rule="evenodd" clip-rule="evenodd" d="M140.874 108.649C140.923 111.377 141.486 114.071 142.535 116.59C145.376 123.298 148.359 129.941 151.343 136.585C152.469 139.092 153.595 141.599 154.714 144.11C155.119 145.029 155.455 145.825 156 147.369H110.808C107.401 156.249 104.276 159.195 98.0964 158.99C92.2175 158.793 88.946 155.477 86.3928 147.369H41C41.2925 146.677 41.5407 146.063 41.7695 145.497C42.0513 144.799 42.3034 144.175 42.5721 143.57C43.8243 140.76 45.0821 137.953 46.3397 135.147C49.2755 128.597 52.2103 122.049 55.0713 115.459C55.7889 113.783 56.1696 111.982 56.1914 110.158C56.2803 97.0198 56.2571 83.866 56.2301 70.7391C56.1914 50.5778 69.4478 33.6404 89.1468 29.1425C92.2446 28.4359 92.9476 27.1966 92.8356 24.3319C92.6928 20.7297 92.721 17.212 92.7511 13.4488C92.7642 11.8154 92.7776 10.1357 92.7776 8.38276H92.963C93.0748 5.37813 95.5441 3 98.5521 3C101.56 3 104.029 5.37813 104.141 8.38276H104.311C104.311 10.0923 104.32 11.7578 104.329 13.3953C104.351 17.305 104.371 21.0551 104.265 24.8647C104.195 27.3086 104.744 28.4128 107.448 29.0112C127.402 33.4473 140.739 50.2149 140.785 70.6117C140.794 74.7591 140.789 78.9065 140.783 83.0538C140.771 91.5855 140.76 100.117 140.874 108.649ZM58.8931 135.397C58.8925 135.398 58.892 135.399 58.8914 135.4V135.397H58.8931ZM60.3768 132.095C59.8868 133.184 59.3921 134.284 58.8931 135.397H138.167C135.443 129.605 132.84 123.567 130.38 117.776C129.727 116.349 129.357 114.81 129.29 113.243C129.158 101.599 129.112 89.9488 129.066 78.298C129.06 76.6908 129.054 75.0837 129.047 73.4765C129.044 72.708 129.08 71.9368 129.115 71.1662C129.175 69.8616 129.235 68.5584 129.109 67.2721C127.734 53.1414 116.409 41.4817 102.558 39.8138C88.2858 37.9959 74.6499 46.2737 69.6834 59.7705C67.756 64.9749 67.7675 70.272 67.895 75.7544C68.1246 86.0628 67.9914 96.3658 67.8581 106.677C67.8322 108.681 67.8062 110.686 67.783 112.691C67.7471 114.385 67.3892 116.057 66.7285 117.617C64.7372 122.402 62.6058 127.14 60.3768 132.095Z" fill="#FFCC00"/>
<path d="M171.431 8.45159C172.169 7.66468 172.192 6.42483 171.485 5.60913L167.051 0.615196C166.717 0.233989 166.246 0.0115858 165.748 0.000439859C165.25 -0.0107061 164.769 0.190392 164.419 0.556305L143.54 22.0868C143.185 22.4478 142.99 22.9438 143 23.4579C143.011 23.972 143.227 24.4587 143.597 24.8036L148.548 29.4717C149.336 30.2011 150.538 30.1718 151.291 29.4049L171.431 8.45159Z" fill="#FFCC00"/>
<path d="M53.4374 24.5411C53.7939 24.1801 53.9964 23.6867 54 23.1704C54.0035 22.654 53.8078 22.1576 53.4564 21.7914L32.973 0.579003C32.617 0.208381 32.133 0 31.6283 0C31.1235 0 30.6395 0.208381 30.2836 0.579003L25.5534 5.39107C24.8155 6.1576 24.8155 7.39786 25.5534 8.16439L45.8813 29.4161C46.6232 30.1838 47.8219 30.196 48.5783 29.4436L53.4374 24.5411Z" fill="#FFCC00"/>
<path d="M162.066 95.8459C161.791 96.8701 162.4 97.9228 163.428 98.1985L192.538 105.933C193.033 106.067 193.561 105.998 194.006 105.743C194.45 105.488 194.774 105.066 194.906 104.572L196.935 97.1029C197.207 96.0799 196.599 95.0299 195.573 94.7541L166.428 87.0657C165.933 86.9333 165.406 87.0027 164.962 87.2588C164.518 87.5149 164.195 87.9365 164.064 88.4304L162.066 95.8459Z" fill="#FFCC00"/>
<path d="M1.42008 94.8976C0.398597 95.1746 -0.206203 96.2129 0.0646411 97.2246L2.08429 104.583C2.21638 105.073 2.54079 105.492 2.98577 105.745C3.43074 105.998 3.9596 106.066 4.45534 105.934L33.5993 98.2431C34.0904 98.1142 34.5081 97.7948 34.7575 97.3574C35.0069 96.92 35.0668 96.4016 34.9238 95.9199L32.6995 88.3935C32.3932 87.3827 31.3297 86.795 30.2975 87.066L1.42008 94.8976Z" fill="#FFCC00"/>
<path d="M163.418 50.8575C162.394 51.1375 161.791 52.1856 162.067 53.2035L164.12 60.5826C164.408 61.6028 165.466 62.2052 166.498 61.9357L195.58 54.2078C196.603 53.9295 197.208 52.8835 196.934 51.8657L194.877 44.4176C194.743 43.9254 194.418 43.5064 193.972 43.2532C193.527 43 192.998 42.9334 192.503 43.0683L163.418 50.8575Z" fill="#FFCC00"/>
<path d="M34.9341 53.1485C35.0673 52.6557 34.9969 52.1307 34.7383 51.6896C34.4797 51.2484 34.0544 50.9276 33.5564 50.7981L4.42736 43.0644C3.39631 42.7938 2.33872 43.4009 2.06282 44.4217L0.065936 51.8602C-0.209616 52.8829 0.403673 53.9334 1.43589 54.2067L30.5959 61.9366C31.6257 62.2047 32.6806 61.5981 32.9565 60.5793L34.9341 53.1485Z" fill="#FFCC00"/>
<rect x="106" y="16" width="44" height="44" rx="6" fill="#4CD964"/>
<path d="M127.8 47.5V29.6143H127.727L122.204 33.54V30.3174L127.771 26.3623H131.008V47.5H127.8Z" fill="white"/>
</svg>
