<svg width="14" height="14" viewBox="0 0 20 20" fill="none" xmlns="http://www.w3.org/2000/svg">
<path fill-rule="evenodd" clip-rule="evenodd" d="M9.1677 0H10.8075C10.9317 0 11.0559 0.223603 11.0559 0.496894V8.9441H19.5031C19.7764 8.9441 20 9.04348 20 9.1677V10.8075C20 10.9317 19.7764 11.0559 19.5031 11.0559H11.0559V19.5031C11.0559 19.7764 10.9317 20 10.8075 20H9.1677C9.04348 20 8.9441 19.7764 8.9441 19.5031V11.0559H0.496894C0.223603 11.0559 0 10.9317 0 10.8075V9.1677C0 9.04348 0.223603 8.9441 0.496894 8.9441H8.9441V0.496894C8.9441 0.223603 9.04348 0 9.1677 0Z" fill="white"/>
</svg>
