<svg width="14" height="14" viewBox="0 0 14 14" fill="none" xmlns="http://www.w3.org/2000/svg">
<path fill-rule="evenodd" clip-rule="evenodd" d="M6.41739 0H7.56522C7.65217 0 7.73913 0.156522 7.73913 0.347826V6.26087H13.6522C13.8435 6.26087 14 6.33043 14 6.41739V7.56522C14 7.65217 13.8435 7.73913 13.6522 7.73913H7.73913V13.6522C7.73913 13.8435 7.65217 14 7.56522 14H6.41739C6.33043 14 6.26087 13.8435 6.26087 13.6522V7.73913H0.347826C0.156522 7.73913 0 7.65217 0 7.56522V6.41739C0 6.33043 0.156522 6.26087 0.347826 6.26087H6.26087V0.347826C6.26087 0.156522 6.33043 0 6.41739 0Z" fill="black"/>
</svg>
