<svg width="17" height="17" viewBox="0 0 20 20" fill="none" xmlns="http://www.w3.org/2000/svg">
<path fill-rule="evenodd" clip-rule="evenodd" d="M19.3421 2.82001H13.3948V1.84565C13.3948 1.36962 13.2007 0.913091 12.8552 0.576487C12.5097 0.239883 12.0412 0.0507812 11.5526 0.0507812H8.44738C7.43002 0.0507812 6.60528 0.854373 6.60528 1.84565V2.82001H0.657908C0.367232 2.82001 0.131592 3.04961 0.131592 3.33283C0.12391 3.471 0.17689 3.60583 0.277307 3.70367C0.377724 3.80152 0.516105 3.85314 0.657908 3.84565H2.3158V16.1021C2.3158 18.2262 4.0831 19.9482 6.26317 19.9482H13.7632C15.9432 19.9482 17.7105 18.2262 17.7105 16.1021V3.84565H19.3421C19.4839 3.85314 19.6223 3.80152 19.7227 3.70367C19.8231 3.60583 19.8761 3.471 19.8684 3.33283C19.8684 3.04961 19.6328 2.82001 19.3421 2.82001ZM7.65791 1.84565C7.65791 1.42082 8.01137 1.07642 8.44738 1.07642H11.5526C11.9887 1.07642 12.3421 1.42082 12.3421 1.84565V2.82001H7.65791V1.84565ZM13.7632 18.9226C15.3619 18.9226 16.6579 17.6598 16.6579 16.1021V3.84565H3.36843V16.1021C3.36843 17.6598 4.66445 18.9226 6.26317 18.9226H13.7632Z" fill="white"/>
<path d="M6.39497 15.9741C6.68564 15.9741 6.92128 15.7445 6.92128 15.4612V6.74329C6.92128 6.46007 6.68564 6.23047 6.39497 6.23047C6.10429 6.23047 5.86865 6.46007 5.86865 6.74329V15.4612C5.86865 15.7445 6.10429 15.9741 6.39497 15.9741Z" fill="white"/>
<path d="M9.99995 15.9741C10.2906 15.9741 10.5263 15.7445 10.5263 15.4612V6.74329C10.5263 6.46007 10.2906 6.23047 9.99995 6.23047C9.70927 6.23047 9.47363 6.46007 9.47363 6.74329V15.4612C9.47363 15.7445 9.70927 15.9741 9.99995 15.9741Z" fill="white"/>
<path d="M13.6054 15.9741C13.8961 15.9741 14.1317 15.7445 14.1317 15.4612V6.74329C14.1317 6.46007 13.8961 6.23047 13.6054 6.23047C13.3147 6.23047 13.0791 6.46007 13.0791 6.74329V15.4612C13.0791 15.7445 13.3147 15.9741 13.6054 15.9741Z" fill="white"/>
</svg>
