<svg width="17" height="17" viewBox="0 0 17 17" fill="none" xmlns="http://www.w3.org/2000/svg">
<path fill-rule="evenodd" clip-rule="evenodd" d="M16.4409 2.39743H11.3856V1.56922C11.3856 1.1646 11.2207 0.776542 10.927 0.490429C10.6334 0.204316 10.2351 0.0435791 9.81985 0.0435791H7.18037C6.31561 0.0435791 5.61458 0.726632 5.61458 1.56922V2.39743H0.55932C0.312245 2.39743 0.111951 2.59258 0.111951 2.83332C0.105421 2.95077 0.150454 3.06537 0.235809 3.14854C0.321163 3.2317 0.438787 3.27558 0.55932 3.26922H1.96853V13.6872C1.96853 15.4927 3.47073 16.9564 5.32379 16.9564H11.6988C13.5519 16.9564 15.0541 15.4927 15.0541 13.6872V3.26922H16.4409C16.5614 3.27558 16.6791 3.2317 16.7644 3.14854C16.8498 3.06537 16.8948 2.95077 16.8883 2.83332C16.8883 2.59258 16.688 2.39743 16.4409 2.39743ZM6.50932 1.56922C6.50932 1.20811 6.80976 0.915374 7.18037 0.915374H9.81985C10.1905 0.915374 10.4909 1.20811 10.4909 1.56922V2.39743H6.50932V1.56922ZM11.6988 16.0846C13.0577 16.0846 14.1593 15.0112 14.1593 13.6872V3.26922H2.86327V13.6872C2.86327 15.0112 3.96488 16.0846 5.32379 16.0846H11.6988Z" fill="black"/>
<path d="M5.43565 13.5782C5.68272 13.5782 5.88302 13.383 5.88302 13.1423V5.73204C5.88302 5.4913 5.68272 5.29614 5.43565 5.29614C5.18857 5.29614 4.98828 5.4913 4.98828 5.73204V13.1423C4.98828 13.383 5.18857 13.5782 5.43565 13.5782Z" fill="black"/>
<path d="M8.5001 13.5782C8.74718 13.5782 8.94747 13.383 8.94747 13.1423V5.73204C8.94747 5.4913 8.74718 5.29614 8.5001 5.29614C8.25303 5.29614 8.05273 5.4913 8.05273 5.73204V13.1423C8.05273 13.383 8.25303 13.5782 8.5001 13.5782Z" fill="black"/>
<path d="M11.5646 13.5782C11.8116 13.5782 12.0119 13.383 12.0119 13.1423V5.73204C12.0119 5.4913 11.8116 5.29614 11.5646 5.29614C11.3175 5.29614 11.1172 5.4913 11.1172 5.73204V13.1423C11.1172 13.383 11.3175 13.5782 11.5646 13.5782Z" fill="black"/>
</svg>
