<svg width="18" height="18" viewBox="0 0 18 18" fill="none" xmlns="http://www.w3.org/2000/svg">
<g opacity="0.4">
<path fill-rule="evenodd" clip-rule="evenodd" d="M11.0218 3.47457e-05C7.16007 -0.0120033 4.01808 3.10555 4.00001 6.96723C3.99496 10.8406 7.12665 13.987 11 14C14.8618 14 17.994 10.8726 18 7.01087C18.006 3.14916 14.8835 0.0120728 11.0218 3.47457e-05ZM11.0242 11.8827C8.29539 11.895 6.07166 9.69597 6.05359 6.96723H6.05177C6.04572 4.22657 8.25939 1.99826 11 1.98622C13.7289 1.98527 15.9434 4.19361 15.95 6.9224C15.9567 9.65119 13.753 11.8703 11.0242 11.8827Z" fill="black"/>
<path d="M1.23334 18L5 14.2407L3.76821 13L0 16.7593L1.23334 18Z" fill="black"/>
</g>
</svg>
