<svg width="25" height="24" viewBox="0 0 25 24" fill="none" xmlns="http://www.w3.org/2000/svg">
<path d="M9.05354 16.1836C8.99389 16.2671 8.93425 16.3625 8.85075 16.4341C6.48884 18.796 4.12694 21.1579 1.76503 23.5198C1.69346 23.5914 1.60996 23.6868 1.52646 23.7464C1.31174 23.9015 1.02545 23.8657 0.846516 23.6868C0.655655 23.4959 0.631798 23.2335 0.786872 23.0069C0.858445 22.9114 0.941947 22.8279 1.02545 22.7444C3.37542 20.3944 5.71347 18.0445 8.06345 15.7064C8.14695 15.6229 8.25431 15.5633 8.34974 15.5036C4.53252 11.1615 5.74926 5.00628 9.56648 2.08372C13.2763 -0.767267 18.5369 -0.433261 21.8054 2.93066C25.2051 6.43774 25.2648 11.8653 22.0917 15.444C18.8948 19.0346 13.169 19.7384 9.05354 16.1836ZM7.08528 9.33644C7.08528 13.8097 10.6997 17.46 15.1372 17.46C19.694 17.46 23.3204 13.8694 23.3323 9.34836C23.3323 4.8512 19.7179 1.23677 15.2088 1.22484C10.7355 1.20099 7.09721 4.82735 7.08528 9.33644Z" fill="black"/>
</svg>
