<svg width="21" height="21" viewBox="0 0 21 21" fill="none" xmlns="http://www.w3.org/2000/svg">
<path fill-rule="evenodd" clip-rule="evenodd" d="M20.309 2.96153H14.0643V1.93845C14.0643 1.43862 13.8605 0.959258 13.4978 0.605824C13.135 0.25239 12.6431 0.053833 12.1301 0.053833H8.86956C7.80132 0.053833 6.93535 0.897604 6.93535 1.93845V2.96153H0.690608C0.385398 2.96153 0.137977 3.2026 0.137977 3.49999C0.12991 3.64506 0.185539 3.78664 0.290977 3.88937C0.396415 3.99211 0.541715 4.04631 0.690608 4.03845H2.4314V16.9077C2.4314 19.1381 4.28706 20.9461 6.57613 20.9461H14.4511C16.7402 20.9461 18.5959 19.1381 18.5959 16.9077V4.03845H20.309C20.4579 4.04631 20.6032 3.99211 20.7087 3.88937C20.8141 3.78664 20.8697 3.64506 20.8617 3.49999C20.8617 3.2026 20.6142 2.96153 20.309 2.96153ZM8.04061 1.93845C8.04061 1.49237 8.41174 1.13076 8.86956 1.13076H12.1301C12.5879 1.13076 12.959 1.49237 12.959 1.93845V2.96153H8.04061V1.93845ZM14.4511 19.8692C16.1298 19.8692 17.4906 18.5433 17.4906 16.9077V4.03845H3.53666V16.9077C3.53666 18.5433 4.89748 19.8692 6.57613 19.8692H14.4511Z" fill="black"/>
<path d="M6.71425 16.7731C7.01946 16.7731 7.26688 16.5321 7.26688 16.2347V7.08082C7.26688 6.78344 7.01946 6.54236 6.71425 6.54236C6.40904 6.54236 6.16162 6.78344 6.16162 7.08082V16.2347C6.16162 16.5321 6.40904 16.7731 6.71425 16.7731Z" fill="black"/>
<path d="M10.4999 16.7731C10.8051 16.7731 11.0525 16.5321 11.0525 16.2347V7.08082C11.0525 6.78344 10.8051 6.54236 10.4999 6.54236C10.1947 6.54236 9.94727 6.78344 9.94727 7.08082V16.2347C9.94727 16.5321 10.1947 16.7731 10.4999 16.7731Z" fill="black"/>
<path d="M14.2855 16.7731C14.5908 16.7731 14.8382 16.5321 14.8382 16.2347V7.08082C14.8382 6.78344 14.5908 6.54236 14.2855 6.54236C13.9803 6.54236 13.7329 6.78344 13.7329 7.08082V16.2347C13.7329 16.5321 13.9803 16.7731 14.2855 16.7731Z" fill="black"/>
</svg>
