<svg width="25" height="26" viewBox="0 0 25 26" fill="none" xmlns="http://www.w3.org/2000/svg">
<path fill-rule="evenodd" clip-rule="evenodd" d="M12.5501 0.702942C8.76368 0.702942 5.6942 3.77243 5.6942 7.55882C5.6942 11.3452 8.76368 14.4147 12.5501 14.4147C16.3365 14.4147 19.406 11.3452 19.406 7.55882C19.406 3.77243 16.3365 0.702942 12.5501 0.702942ZM6.70008 7.55882C6.70008 4.32796 9.31921 1.70882 12.5501 1.70882C15.7809 1.70882 18.4001 4.32796 18.4001 7.55882C18.4001 10.7897 15.7809 13.4088 12.5501 13.4088C9.31921 13.4088 6.70008 10.7897 6.70008 7.55882Z" fill="#3d752b"/>
<path d="M12.5501 14.8206C6.03474 14.8206 0.753021 20.1023 0.753021 26.6176C0.753021 26.8954 0.978195 27.1206 1.25596 27.1206C1.53373 27.1206 1.7589 26.8954 1.7589 26.6176C1.7589 20.6578 6.59028 15.8265 12.5501 15.8265C18.5099 15.8265 23.3413 20.6578 23.3413 26.6176C23.3413 26.8954 23.5664 27.1206 23.8442 27.1206C24.122 27.1206 24.3471 26.8954 24.3471 26.6176C24.3471 20.1023 19.0654 14.8206 12.5501 14.8206Z" fill="#3d752b"/>
</svg>
